<?xml version="1.0" encoding="iso-8859-1"?>
<!-- Generator: Adobe Illustrator 19.0.0, SVG Export Plug-In . SVG Version: 6.00 Build 0)  -->
<svg version="1.1" id="Capa_1" xmlns="http://www.w3.org/2000/svg" xmlns:xlink="http://www.w3.org/1999/xlink" x="0px" y="0px"
	 viewBox="0 0 512 512" style="enable-background:new 0 0 512 512;" xml:space="preserve">
<g>
	<path style="fill:#9E4716;" d="M480.847,503.239h-34.463V245.128c0-2.761,2.239-5,5-5h24.463c2.761,0,5,2.239,5,5V503.239z"/>
	<path style="fill:#9E4716;" d="M70.292,503.239H35.829V245.128c0-2.761,2.239-5,5-5h24.463c2.761,0,5,2.239,5,5V503.239z"/>
</g>
<g>
	<path style="fill:#7F3B0D;" d="M70.292,503.239H53.06V240.128h12.231c2.761,0,5,2.239,5,5L70.292,503.239L70.292,503.239z"/>
	<path style="fill:#7F3B0D;" d="M480.847,503.239h-17.231V240.128h12.231c2.761,0,5,2.239,5,5V503.239z"/>
</g>
<path style="fill:#42AA55;" d="M367.177,41.85h-41.541V13.761c0-2.761,2.239-5,5-5h31.541c2.761,0,5,2.239,5,5V41.85z"/>
<path style="fill:#6C7782;" d="M383.538,82.707h-74.263c-3.866,0-7-3.134-7-7V48.85c0-3.866,3.134-7,7-7h74.263c3.866,0,7,3.134,7,7
	v26.857C390.538,79.573,387.404,82.707,383.538,82.707z"/>
<path style="fill:#4E5860;" d="M390.533,48.839v26.872c0,3.866-3.127,6.993-6.993,6.993h-28.011V41.846h28.011
	C387.406,41.846,390.533,44.983,390.533,48.839z"/>
<path style="fill:#14802B;" d="M367.177,13.755v28.091h-11.648V8.761h6.653C364.939,8.761,367.177,10.998,367.177,13.755z"/>
<path style="fill:#42AA55;" d="M376.306,187.021V82.707h-59.798v104.315c-27.128,10.864-46.298,37.377-46.298,68.386V502.34h152.394
	V255.407C422.603,224.399,403.433,197.885,376.306,187.021z"/>
<path style="fill:#14802B;" d="M422.603,255.405V502.34h-20.769V280.679c-0.849-44.773-14.831-51.069-36.865-63.794
	c-5.799-3.349-9.437-9.468-9.437-16.164V82.704h20.769v104.322C403.433,197.885,422.603,224.398,422.603,255.405z"/>
<rect x="316.51" y="82.7" style="fill:#6C7782;" width="59.798" height="57.24"/>
<rect x="355.53" y="82.7" style="fill:#4E5860;" width="20.777" height="57.24"/>
<path d="M430.095,411.237v-48.988c-4.938,1.24-9.942,2.21-14.985,2.953v46.549C420.108,411.537,425.103,411.366,430.095,411.237z"/>
<path style="fill:#E2E8ED;" d="M422.603,445.309h-66.197c-5.523,0-10-4.477-10-10V259.761c0-5.523,4.477-10,10-10h66.197V445.309z"
	/>
<rect x="393.65" y="249.76" style="fill:#CFDDE8;" width="28.956" height="195.55"/>
<path style="fill:#42AA55;" d="M186.364,41.85h-41.541V13.761c0-2.761,2.239-5,5-5h31.541c2.761,0,5,2.239,5,5V41.85z"/>
<path style="fill:#6C7782;" d="M202.725,82.707h-74.263c-3.866,0-7-3.134-7-7V48.85c0-3.866,3.134-7,7-7h74.263c3.866,0,7,3.134,7,7
	v26.857C209.725,79.573,206.591,82.707,202.725,82.707z"/>
<path style="fill:#4E5860;" d="M209.72,48.839v26.872c0,3.866-3.127,6.993-6.993,6.993h-28.011V41.846h28.011
	C206.593,41.846,209.72,44.983,209.72,48.839z"/>
<path style="fill:#14802B;" d="M186.364,13.755v28.091h-11.648V8.761h6.653C184.126,8.761,186.364,10.998,186.364,13.755z"/>
<path style="fill:#42AA55;" d="M195.492,187.021V82.707h-59.798v104.315c-27.128,10.864-46.298,37.377-46.298,68.386V502.34H241.79
	V255.407C241.79,224.399,222.62,197.885,195.492,187.021z"/>
<path style="fill:#14802B;" d="M241.79,255.405V502.34h-20.769V280.679c-0.849-44.773-14.831-51.069-36.865-63.794
	c-5.799-3.349-9.437-9.468-9.437-16.164V82.704h20.769v104.322C222.62,197.885,241.79,224.398,241.79,255.405z"/>
<rect x="135.7" y="82.7" style="fill:#6C7782;" width="59.798" height="57.24"/>
<rect x="174.72" y="82.7" style="fill:#4E5860;" width="20.777" height="57.24"/>
<path style="fill:#E2E8ED;" d="M241.79,445.309h-66.197c-5.523,0-10-4.477-10-10V259.761c0-5.523,4.477-10,10-10h66.197
	L241.79,445.309L241.79,445.309z"/>
<rect x="212.83" y="249.76" style="fill:#CFDDE8;" width="28.956" height="195.55"/>
<path style="fill:#9E4716;" d="M499.508,364.004H12.492c-2.761,0-5-2.239-5-5v-82.41c0-2.761,2.239-5,5-5h487.016
	c2.761,0,5,2.239,5,5v82.41C504.508,361.765,502.27,364.004,499.508,364.004z"/>
<path style="fill:#7F3B0D;" d="M499.508,364.004h-35.893v-92.41h35.893c2.761,0,5,2.239,5,5v82.41
	C504.508,361.765,502.27,364.004,499.508,364.004z"/>
<path style="fill:#9E4716;" d="M499.508,503.239H12.492c-2.761,0-5-2.239-5-5v-82.41c0-2.761,2.239-5,5-5h487.016
	c2.761,0,5,2.239,5,5v82.41C504.508,501.001,502.27,503.239,499.508,503.239z"/>
<path style="fill:#7F3B0D;" d="M499.508,503.239h-35.893v-92.41h35.893c2.761,0,5,2.239,5,5v82.41
	C504.508,501.001,502.27,503.239,499.508,503.239z"/>
<path d="M499.513,371.496c6.885,0,12.487-5.602,12.487-12.487v-82.421c0-6.885-5.602-12.487-12.487-12.487h-11.174v-18.978
	c0-6.885-5.602-12.487-12.487-12.487h-24.473c-6.885,0-12.487,5.602-12.487,12.487v18.978h-8.797v-0.053
	c0-7.402-1.167-13.85-1.08-20.867c0.047-3.803-1.349-7.956-2.446-11.564c-2.193-7.217-5.401-14.121-9.507-20.448
	c-4.101-6.318-9.092-12.052-14.782-16.988c-1.825-1.583-18.483-11.353-18.483-12.06c0-0.009,0-91.936,0-91.936
	c7.87-0.137,14.232-6.571,14.232-14.472V48.842c0-7.987-6.498-14.485-14.485-14.485h-8.876V13.755
	c0-6.885-5.602-12.487-12.487-12.487H330.63c-6.885,0-12.487,5.602-12.487,12.487v20.602h-8.876
	c-7.987,0-14.485,6.498-14.485,14.485v26.872c0,7.902,6.363,14.335,14.232,14.472v91.94c-6.355,3.025-12.287,6.865-17.688,11.454
	c-3.153,2.68-3.536,7.408-0.857,10.561c2.679,3.154,7.407,3.537,10.561,0.857c5.476-4.654,11.62-8.362,18.26-11.022
	c2.843-1.138,4.707-3.892,4.707-6.955v-39.588h44.813v39.588c0,3.063,1.864,5.817,4.707,6.955
	c21.104,8.451,35.962,26.669,40.286,48.292h-57.41c-9.639,0-17.482,7.842-17.482,17.482v4.351h-61.212v-8.695
	c0-3.036,0.207-6.088,0.616-9.071c0.562-4.099-2.307-7.878-6.406-8.44c-4.098-0.562-7.878,2.306-8.44,6.406
	c-0.5,3.653-0.754,7.389-0.754,11.104v8.695H249.28v-8.695c0-7.617-1.569-17.735-3.928-25.074
	c-2.296-7.128-5.588-13.93-9.757-20.151c-4.168-6.219-9.207-11.849-14.925-16.681c-1.752-1.48-17.688-10.674-17.688-11.379
	c0-0.026,0-91.936,0-91.936c7.87-0.137,14.232-6.571,14.232-14.472v-26.87c0-7.987-6.498-14.485-14.485-14.485h-8.876V13.755
	c0-6.885-5.602-12.487-12.487-12.487h-31.551c-6.885,0-12.487,5.602-12.487,12.487v20.602h-8.876
	c-7.987,0-14.485,6.498-14.485,14.485v26.872c0,7.902,6.363,14.335,14.232,14.472v91.936
	c-28.291,13.413-46.298,41.645-46.298,73.285v8.695H77.78v-18.978c0-6.885-5.602-12.487-12.487-12.487H40.824
	c-6.885,0-12.487,5.602-12.487,12.487v18.978h-15.85C5.602,264.102,0,269.703,0,276.589v82.421c0,6.885,5.602,12.487,12.487,12.487
	h15.85v31.841h-15.85C5.602,403.337,0,408.939,0,415.824v82.421c0,6.885,5.602,12.487,12.487,12.487h487.026
	c6.885,0,12.487-5.602,12.487-12.487v-82.421c0-6.885-5.602-12.487-12.487-12.487h-11.174v-31.841H499.513z M333.128,16.253h26.557
	v18.104h-26.557V16.253z M309.768,49.342h73.278v25.873h-73.278V49.342z M324,132.449v-42.25h44.813v42.25H324z M453.876,247.621
	h19.478v16.481h-19.478V247.621z M353.899,259.751c0-1.377,1.12-2.497,2.497-2.497h58.715v6.848h-61.212V259.751z M173.086,264.102
	v-4.351c0-1.377,1.12-2.497,2.497-2.497h58.715v6.848L173.086,264.102L173.086,264.102z M143.187,90.199H188v42.25h-44.813V90.199z
	 M152.315,16.253h26.557v18.104h-26.557V16.253z M128.955,49.342h73.278v25.873h-73.278V49.342z M96.889,255.407
	c0-27.2,16.325-51.313,41.591-61.43c2.843-1.138,4.707-3.892,4.707-6.955v-39.588H188v39.588c0,3.063,1.864,5.817,4.707,6.955
	c21.104,8.451,35.962,26.669,40.286,48.292h-57.41c-9.64,0-17.482,7.842-17.482,17.482v4.351H96.889V255.407z M43.321,247.621
	h19.478v16.481H43.321V247.621z M14.984,279.086h482.031v77.426H155.604c-4.138,0-7.492,3.354-7.492,7.492s3.354,7.492,7.492,7.492
	h2.497v31.841H96.889v-31.841h5.103c4.138,0,7.492-3.354,7.492-7.492s-3.354-7.492-7.492-7.492H14.984V279.086z M430.095,403.337
	v-31.841h8.797v31.841H430.095z M234.298,371.496v31.841h-61.212v-31.841H234.298z M249.282,371.496h13.435v31.841h-13.435
	L249.282,371.496L249.282,371.496z M277.702,371.496h61.212v31.841h-61.212V371.496z M353.899,371.496h61.212v31.841h-61.212
	V371.496z M81.905,371.496v31.841h-4.121v-31.841H81.905z M43.321,371.496h19.478v31.841H43.321V371.496z M497.016,495.747H14.984
	v-77.426h482.031L497.016,495.747L497.016,495.747z M473.354,403.337h-19.478v-31.841h19.478V403.337z"/>
<circle cx="53.06" cy="300.82" r="7.492"/>
<circle cx="53.06" cy="334.78" r="7.492"/>
<circle cx="53.06" cy="440.05" r="7.492"/>
<circle cx="53.06" cy="474.02" r="7.492"/>
<circle cx="463.62" cy="300.82" r="7.492"/>
<circle cx="463.62" cy="334.78" r="7.492"/>
<circle cx="463.62" cy="440.05" r="7.492"/>
<circle cx="463.62" cy="474.02" r="7.492"/>
<g>
</g>
<g>
</g>
<g>
</g>
<g>
</g>
<g>
</g>
<g>
</g>
<g>
</g>
<g>
</g>
<g>
</g>
<g>
</g>
<g>
</g>
<g>
</g>
<g>
</g>
<g>
</g>
<g>
</g>
</svg>
